<svg xmlns="http://www.w3.org/2000/svg" version="1.1" xmlns:xlink="http://www.w3.org/1999/xlink" xmlns:svgjs="http://svgjs.dev/svgjs" width="1000" height="1125" viewBox="0 0 1000 1125"><g transform="matrix(1,0,0,1,1.7053025658242404e-13,0)"><svg viewBox="0 0 320 360" data-background-color="#333366" preserveAspectRatio="xMidYMid meet" height="1125" width="1000" xmlns="http://www.w3.org/2000/svg" xmlns:xlink="http://www.w3.org/1999/xlink"><g id="tight-bounds" transform="matrix(1,0,0,1,0,0)"><svg viewBox="0 0 320 360" height="360" width="320"><g><svg></svg></g><g><svg viewBox="0 0 320 360" height="360" width="320"><g><path xmlns="http://www.w3.org/2000/svg" d="M20.961 227.22l3.726 4.658-1.863-6.056c-0.466-2.795-3.726 0.466-1.863 1.398M25.153 224.425c1.397 2.329 2.795 4.658 2.795 6.987 0 3.261 2.795 4.658 5.123 5.589-3.261-3.726-5.124-13.974-7.918-12.576M204.017 26.929c7.918 0 15.371-0.932 23.756 0.931 20.495 5.124 37.729 15.371 49.374 29.811l32.606 52.169c1.397 13.042 4.192 27.482 3.726 43.319 3.261 0 2.795-4.658 6.521-5.59-3.726 9.316-5.59 20.961-6.521 34.469-2.329-7.453 0-18.632 0.466-24.687-3.261 5.124-5.124 1.397-5.124-0.932 0.466-3.726-1.397-3.261-2.795-4.658-5.124-4.658-8.384-9.782-12.11-17.7 2.329-6.055 2.795-14.905-4.658-19.563-2.329-1.397-5.124-3.726-6.521-7.453-1.863-5.124-5.124-11.179-4.193-19.097 0.466-2.329-6.987 5.124-11.179 1.863-18.166-12.576-36.332-27.016-58.224-39.127-11.645 0-20.029-4.192-24.221-9.316-3.726-4.658-0.932-10.713 4.658-11.179 3.261 0 6.987-0.932 9.782 0.932 0.466-1.863 2.329-4.192 4.657-4.192M157.904 16.215l0.932 0.466c4.658 0.932 6.987 7.453 12.11 5.124 0 3.261 0.466 6.521-0.466 8.85-1.397 3.726-5.59 3.726-8.85 3.726-31.208-1.863-49.374 11.179-68.471 22.358-5.124 3.261-10.713 5.59-14.906 9.782-20.029 18.632-41.921 35.866-47.045 70.335l-4.192 38.195c-0.466 4.192-5.124 8.384-4.192 13.508l3.26 22.824c-3.261-3.261-5.124 0.932-4.192 2.795 0.466 1.397 2.329 6.055 5.124 1.863 3.726 6.987 7.453 20.495 12.576 26.55 15.837 18.632 36.332 35.4 53.101 52.169 4.192-0.932 7.453-0.932 8.384-3.727 1.397 2.795-1.397 5.59-3.726 6.056 7.453 4.658 15.837 8.85 27.016 9.781 14.44 0.932 27.948 3.261 40.524 6.522 6.521-1.863 13.042-2.795 20.029-3.261 2.329 0 3.726-3.726 6.521-4.658l0.466-4.658c2.795 4.192 2.329-1.397 0.466-4.192 3.261 2.795 4.192 5.124 5.589 6.987 0-1.397 3.726-6.521 3.727-0.466l0.931-6.055c1.397-0.932 1.863 5.124 3.261 0.931 1.397-4.192 4.192-0.932 6.987-2.329-0.932 1.863-0.466 5.59 2.794 3.261l3.727-3.261c2.329 5.59 6.055 3.261 7.918 2.329 20.495-13.042 40.99-28.413 60.553-43.784l-0.466 6.055 2.329-7.453c2.329 2.329 4.192 0.466 5.124-0.931 2.795-4.658 6.521-9.316 12.577-13.508-7.453 20.029-16.303 35.866-27.482 48.908l-4.658 5.59c0 3.261-0.932 7.453-4.658 7.918-1.863 0.466-5.59-0.932-8.384 1.863-1.397 1.863 3.261 5.59-0.466 2.795-3.261-2.329-6.521 0-10.248 0.932-2.795 0.932 1.863 3.726 2.795 5.589 0.932 1.863 1.863 3.726 1.398 6.056l-5.124-5.59c-6.055 3.261-9.782 9.316-14.906 13.974-2.329 1.863-1.397 5.124-1.397 7.918-3.261 0-6.987-0.932-8.85 0.932-1.397 1.863-0.932 4.658-0.932 7.453-4.658-0.466-5.124-7.453-9.315-6.056-4.192 0.932-8.85 1.397-12.577 3.727 2.795 5.59-4.658 2.329-3.726 3.26-6.987-4.192-13.042-7.453-20.495-4.658-15.837-5.124-35.4-2.795-49.84-0.931 0-2.329 0.466-4.658-0.466-5.124-0.932 2.329-3.726 1.397-3.26 1.397-8.85-6.055-17.7-9.782-27.016-14.905-8.384 0.932-16.303-3.261-18.632-5.59-6.521-6.055-13.974-2.795-20.029-4.192-13.042-3.261-17.7-16.769-19.098-26.084-0.932-4.658-4.658-6.521-6.055-6.056-6.055-19.563-15.371-37.263-22.824-55.429-1.863-4.658-1.397-9.316-1.397-14.44 2.329 0.932 4.658 0.466 4.192-2.794-2.329-15.371-7.918-27.016-13.974-38.195 3.261-15.837 3.726-34.469 11.179-48.443 6.521-12.576 18.632-19.098 27.016-29.811 2.795-3.726 2.795-8.85 5.59-12.11 9.316-9.316 18.632-19.098 28.879-27.482 4.658-3.726 10.247 0 17.234-1.397 2.329-8.384 11.645-15.837 20.495-13.508 3.726 0.932 11.179-8.85 13.508-9.782 3.726-1.397 1.863 3.726 1.863 6.987 8.85-6.987 20.961-10.713 32.14-14.906" fill="#ffffff" fill-rule="nonzero" stroke="none" stroke-width="1" stroke-linecap="butt" stroke-linejoin="miter" stroke-miterlimit="10" stroke-dasharray="" stroke-dashoffset="0" font-family="none" font-weight="none" font-size="none" text-anchor="none" style="mix-blend-mode: normal" data-fill-palette-color="tertiary"></path></g><g transform="matrix(1,0,0,1,97.15833507043766,90)"><svg viewBox="0 0 125.68332985912467 180" height="180" width="125.68332985912467"><g><svg viewBox="0 0 125.68332985912467 180" height="180" width="125.68332985912467"><g><svg viewBox="0 0 191.99999999999997 274.9768011297715" height="180" width="125.68332985912467"><g transform="matrix(1,0,0,1,0,133.29485331487888)"><svg viewBox="0 0 191.99999999999997 141.68194781489262" height="141.68194781489262" width="191.99999999999997"><g id="textblocktransform"><svg viewBox="0 0 191.99999999999997 141.68194781489262" height="141.68194781489262" width="191.99999999999997" id="textblock"><g><svg viewBox="0 0 191.99999999999997 100.31833910034601" height="100.31833910034601" width="191.99999999999997"><g transform="matrix(1,0,0,1,0,0)"><svg width="191.99999999999997" viewBox="0 -34.400001525878906 86.69000244140625 45.30000305175781" height="100.31833910034601" data-palette-color="#ffffff"><path d="M20.1-34.05L20.1-34.05Q20.9-34 20.9-33.83 20.9-33.65 20.4-33.45L20.4-33.45Q12.9-30.05 7.48-22.5 2.05-14.95 2.05-8.95L2.05-8.95Q2.05-5.9 3.75-4.13 5.45-2.35 8.65-2.35 11.85-2.35 15.6-4.55L15.6-4.55Q15.4-6.3 15.4-8.95L15.4-8.95 15.4-9.85Q13.5-8.9 11.9-8.9L11.9-8.9Q7.5-8.9 7.5-12.65L7.5-12.65Q7.5-15.25 9.68-19.03 11.85-22.8 15.05-26.2 18.25-29.6 22.3-32 26.35-34.4 29.75-34.4L29.75-34.4Q33.85-34.4 33.85-30.05L33.85-30.05Q33.85-25.1 28.98-17.38 24.1-9.65 17.75-4.95L17.75-4.95Q18.5 0.95 18.5 3.18 18.5 5.4 17.48 8.13 16.45 10.85 15.5 10.9L15.5 10.9Q15.25 10.9 15.25 10.55 15.25 10.2 15.55 9.85L15.55 9.85Q16.9 8.9 16.9 5.15L16.9 5.15Q16.9 3.2 16.38 0.43 15.85-2.35 15.7-3.6L15.7-3.6Q11.2-0.8 7.4-0.8 3.6-0.8 1.8-2.7 0-4.6 0-7.85L0-7.85Q0-14.45 6.03-22.68 12.05-30.9 20.1-34.05ZM32.3-28.95L32.3-28.95Q32.3-33 28.45-33 24.6-33 20.03-29.43 15.45-25.85 12.4-21.2 9.35-16.55 9.35-13.4 9.35-10.25 12.95-10.25L12.95-10.25Q14.05-10.25 15.5-10.85L15.5-10.85Q15.95-15.15 17.95-18.3 19.95-21.45 22.65-21.45L22.65-21.45Q24.15-21.45 24.15-19.93 24.15-18.4 22-15.58 19.85-12.75 17.05-10.8L17.05-10.8Q17.2-8.75 17.6-5.9L17.6-5.9Q23.3-10.15 27.8-17.25 32.3-24.35 32.3-28.95ZM17.05-11.75Q19.2-13.25 20.8-15.63 22.4-18 22.4-19.05 22.4-20.1 21.75-20.1L21.75-20.1Q20.3-20.05 18.68-17.23 17.05-14.4 17.05-12.15L17.05-12.15 17.05-11.75ZM29.75-0.5L29.75-0.5Q29.75-1.05 30.57-2.35 31.4-3.65 31.67-4 31.95-4.35 32.5-5.1L32.5-5.1Q26.55 0.3 24.3 0.3L24.3 0.3Q23.05 0.3 23.05-0.75L23.05-0.75Q23.05-2.25 28.1-9.2L28.1-9.2Q28.35-9.6 28.75-9.6L28.75-9.6Q29.9-9.25 29.9-9.1 29.9-8.95 29.6-8.5L29.6-8.5Q25.3-2.7 25.3-1.98 25.3-1.25 25.8-1.25L25.8-1.25Q27.2-1.25 30.77-4.48 34.35-7.7 35.95-9.8L35.95-9.8Q36.15-10.15 36.6-10.15L36.6-10.15Q37.6-9.95 37.6-9.75L37.6-9.75Q37.05-8.95 36.1-7.65 35.15-6.35 34.55-5.53 33.95-4.7 33.3-3.75L33.3-3.75Q32.05-2.05 31.8-1.25L31.8-1.25Q31.8-0.75 32.62-0.75 33.45-0.75 35.55-1.73 37.65-2.7 39.25-3.7L39.25-3.7 40.85-4.7Q40.9-4.6 40.9-4.3 40.9-4 40.45-3.8L40.45-3.8Q33.7 0.8 31.05 0.8L31.05 0.8Q29.75 0.8 29.75-0.5ZM48.35-15.25L48.35-15.25Q49.1-15.25 49.1-14.5 49.1-13.75 48.4-12.98 47.7-12.2 46.85-12.2L46.85-12.2Q46.15-12.2 46.15-13.18 46.15-14.15 46.95-14.7 47.75-15.25 48.35-15.25ZM43.65-8.65L43.65-8.65Q43.9-9.05 44.35-9.05 44.8-9.05 45.25-8.6L45.25-8.6Q45.25-8.4 44.6-7.7 43.95-7 42.4-4.58 40.85-2.15 40.85-1.35L40.85-1.35Q40.85-0.85 41.6-0.75L41.6-0.75Q42.6-0.75 44.7-1.73 46.8-2.7 48.4-3.7L48.4-3.7 50-4.7Q50.05-4.6 50.05-4.3 50.05-4 49.6-3.8L49.6-3.8Q42.85 0.8 40.2 0.8L40.2 0.8Q38.9 0.8 38.9-0.5 38.9-1.8 40.32-4.13 41.75-6.45 43.65-8.65ZM48.89-3.35L48.89-3.35Q48.69-3.25 48.52-3.25 48.34-3.25 48.34-3.45 48.34-3.65 48.49-3.8L48.49-3.8Q50.54-4.95 52.99-7.55L52.99-7.55Q50.74-8.25 50.74-9.53 50.74-10.8 52.44-12.38 54.14-13.95 55.64-13.95L55.64-13.95Q56.64-13.95 56.64-12.75L56.64-12.75Q56.64-10.9 54.79-8.8L54.79-8.8Q57.19-8.4 57.19-7.65L57.19-7.65Q57.19-6.65 56.32-6.13 55.44-5.6 54.29-4.25 53.14-2.9 53.14-1.55L53.14-1.55Q53.14-1.25 53.34-1 53.54-0.75 54.19-0.75 54.84-0.75 56.94-1.73 59.04-2.7 60.64-3.7L60.64-3.7 62.24-4.7Q62.29-4.6 62.29-4.3 62.29-4 61.84-3.8L61.84-3.8Q55.09 0.8 52.44 0.8L52.44 0.8Q51.14 0.8 51.14-0.5L51.14-0.5Q51.14-1.55 51.87-2.7 52.59-3.85 53.47-4.6 54.34-5.35 55.07-6.03 55.79-6.7 55.79-6.9 55.79-7.1 55.17-7.15 54.54-7.2 53.54-7.4L53.54-7.4Q50.79-4.45 48.89-3.35ZM51.99-10.3L51.99-10.3Q51.99-9.3 54.19-8.9L54.19-8.9Q55.49-10.5 55.49-11.68 55.49-12.85 54.74-12.85 53.99-12.85 52.99-11.98 51.99-11.1 51.99-10.3ZM72.69-2.3L72.69-2.3 76.79-4.7Q76.84-4.6 76.84-4.3 76.84-4 76.39-3.8L76.39-3.8Q69.59 0.75 66.69 0.75L66.69 0.75Q64.19 0.75 64.19-2.55L64.19-2.55Q64.19-3.9 64.64-5.03 65.09-6.15 66.09-6.15L66.09-6.15Q69.54-6.15 71.47-7.2 73.39-8.25 73.39-9.38 73.39-10.5 71.79-10.5L71.79-10.5Q68.19-10.5 62.64-4L62.64-4Q60.94-0.8 60.09 0.9L60.09 0.9Q59.84 1.35 59.39 1.35L59.39 1.35Q58.39 1.35 58.39 0.65L58.39 0.65Q58.39 0.35 58.59-0.05L58.59-0.05 63.04-7.85Q67.29-15.35 71.74-21.35 76.19-27.35 78.44-27.35L78.44-27.35Q79.19-27.35 79.49-26.65L79.49-26.65Q79.64-26.4 79.64-26.05L79.64-26.05Q79.64-24.25 76.54-20.4 73.44-16.55 70.74-13.9 68.04-11.25 65.24-8.75L65.24-8.75 63.84-6.25Q69.24-11.75 73.24-11.75L73.24-11.75Q75.54-11.75 75.54-10.25L75.54-10.25Q75.54-8.6 72.97-6.95 70.39-5.3 66.54-5.3L66.54-5.3Q65.99-4.5 65.99-3.5L65.99-3.5Q65.99-0.7 68.19-0.7L68.19-0.7Q69.79-0.7 72.54-2.2L72.54-2.2Q72.64-2.3 72.69-2.3ZM77.99-25.5L77.99-25.5Q77.99-26 77.74-26L77.74-26Q74.99-26 66.29-10.7L66.29-10.7Q70.69-14.75 74.34-18.98 77.99-23.2 77.99-25.5ZM86.34-3.5L86.34-3.5Q84.79-2.55 82.74-2.55L82.74-2.55 82.14-2.55Q80.79-1 79.26-0.03 77.74 0.95 76.64 0.95L76.64 0.95Q75.09 0.95 75.09-1.05 75.09-3.05 77.24-5.7L77.24-5.7Q77.04-6.25 77.04-7.05L77.04-7.05Q77.04-8.8 78.56-10.08 80.09-11.35 81.54-11.35L81.54-11.35Q84.59-11.35 84.59-8.05L84.59-8.05Q84.59-5.85 82.69-3.25L82.69-3.25 83.29-3.25Q84.89-3.25 86.04-4L86.04-4Q86.19-4.15 86.44-4.15 86.69-4.15 86.69-3.98 86.69-3.8 86.34-3.5ZM81.54-9.25L81.54-9.25Q81.79-9.35 81.94-9.35 82.09-9.35 82.09-9.13 82.09-8.9 81.54-8.5L81.54-8.5Q79.54-6.95 78.54-5.7L78.54-5.7Q79.64-3.95 81.89-3.4L81.89-3.4Q83.84-5.7 83.84-7.7L83.84-7.7Q83.84-8.85 83.09-9.45 82.34-10.05 81.16-10.05 79.99-10.05 78.99-9.38 77.99-8.7 77.99-7.93 77.99-7.15 78.14-6.7L78.14-6.7Q79.69-8.3 81.54-9.25ZM77.84-4.6L77.84-4.6Q77.04-3.25 77.04-1.6L77.04-1.6Q77.04-0.7 77.84-0.7L77.84-0.7Q79.19-0.7 81.19-2.7L81.19-2.7Q78.94-3.1 77.84-4.6Z" opacity="1" transform="matrix(1,0,0,1,0,0)" fill="#ffffff" class="wordmark-text-0" data-fill-palette-color="primary" id="text-0"></path></svg></g></svg></g><g transform="matrix(1,0,0,1,0,114.9571924152249)"><svg viewBox="0 0 191.99999999999997 26.724755399667707" height="26.724755399667707" width="191.99999999999997"><g transform="matrix(1,0,0,1,0,0)"><svg width="191.99999999999997" viewBox="4 -37.5 270.82000732421875 37.70000076293945" height="26.724755399667707" data-palette-color="#ff6699"><path d="M26.1-35L29.25-35 29.25-15Q29.25-7.2 25.6-3.25L25.6-3.25Q22.35 0.2 16.68 0.2 11 0.2 8-2.5L8-2.5Q4-6.15 4-15L4-15 4-35 7.4-35 7.4-15.05Q7.4-7.8 10.4-4.8L10.4-4.8Q12.65-2.55 16.9-2.55L16.9-2.55Q23.25-2.55 25.35-9.2L25.35-9.2Q26.1-11.55 26.1-15.05L26.1-15.05 26.1-35ZM48.7-24.5L47.4-21.5Q46.6-21.95 45.7-21.95 44.8-21.95 44.7-21.9L44.7-21.9Q42.8-21.9 40.87-20.53 38.95-19.15 37.6-17.45L37.6-17.45 37.6 0 34.35 0 34.35-25 37.6-25.25 37.6-19.65Q39.45-22 40.75-22.95L40.75-22.95Q43.15-24.75 45.35-24.85L45.35-24.85Q45.65-24.9 46.45-24.9 47.25-24.9 48.7-24.5L48.7-24.5ZM54.95 0L51.7 0 51.7-37.25 54.95-37.5 54.95 0ZM95.19-34.1L95.19-34.1 94.59-31.25Q90.74-32.1 88.04-32.1L88.04-32.1Q78.34-32.1 78.34-26.2L78.34-26.2Q78.34-23.95 79.77-22.75 81.19-21.55 83.37-20.78 85.54-20 88.04-19.38 90.54-18.75 92.69-17.7L92.69-17.7Q97.74-15.2 97.74-10.05 97.74-4.9 93.89-2.25L93.89-2.25Q90.59 0.05 85.19 0.05L85.19 0.05Q78.49 0.05 73.89-3L73.89-3 75.19-5.55Q76.54-4.6 79.04-3.78 81.54-2.95 83.89-2.95L83.89-2.95Q88.49-2.95 91.14-4.45L91.14-4.45Q94.34-6.3 94.34-9.75L94.34-9.75Q94.34-12.3 92.92-13.73 91.49-15.15 89.32-16.03 87.14-16.9 84.64-17.53 82.14-18.15 79.99-19.1L79.99-19.1Q74.94-21.3 74.94-25.65 74.94-30 77.94-32.55 80.94-35.1 86.44-35.1L86.44-35.1Q90.69-35.1 95.19-34.1ZM105.74-37.5L105.74-22.15Q109.69-25 113.34-25.15L113.34-25.15Q116.44-25.15 118.09-24.4 119.74-23.65 120.79-22.28 121.84-20.9 121.84-18.4L121.84-18.4 121.84 0 118.59 0 118.59-17.55Q118.59-19.4 117.79-20.4L117.79-20.4Q116.19-22.25 112.89-22.25L112.89-22.25Q109.64-22.1 105.74-20.15L105.74-20.15 105.74 0 102.49 0 102.49-37.25 105.74-37.5ZM126.39-6.4L126.39-6.4Q125.49-8.8 125.49-12L125.49-12Q125.49-18.15 128.94-21.68 132.39-25.2 137.59-25.2L137.59-25.2Q145.74-25.2 148.29-18.6L148.29-18.6Q149.24-16.2 149.24-13L149.24-13Q149.24-6.85 145.79-3.33 142.34 0.2 137.14 0.2L137.14 0.2Q128.99 0.2 126.39-6.4ZM128.74-12.35Q128.74-7.75 131.11-5.23 133.49-2.7 137.24-2.7 140.99-2.7 143.49-5.38 145.99-8.05 145.99-12.65 145.99-17.25 143.64-19.78 141.29-22.3 137.51-22.3 133.74-22.3 131.24-19.63 128.74-16.95 128.74-12.35ZM167.63-24.5L166.33-21.5Q165.53-21.95 164.63-21.95 163.73-21.95 163.63-21.9L163.63-21.9Q161.73-21.9 159.81-20.53 157.88-19.15 156.53-17.45L156.53-17.45 156.53 0 153.28 0 153.28-25 156.53-25.25 156.53-19.65Q158.38-22 159.68-22.95L159.68-22.95Q162.08-24.75 164.28-24.85L164.28-24.85Q164.58-24.9 165.38-24.9 166.18-24.9 167.63-24.5L167.63-24.5ZM181.48-3.6L182.08-0.9Q181.18 0 178.83 0L178.83 0Q175.53 0 174.38-1.7L174.38-1.7Q172.43-3.55 172.43-6.7L172.43-6.7 172.43-22.1 169.63-22.1 170.08-25 172.43-25 172.43-29.95 175.68-30.25 175.68-25 181.48-25 181.48-22.1 175.68-22.1 175.68-5.9Q175.68-3 178.68-3L178.68-3Q179.98-3 181.48-3.6L181.48-3.6ZM188.03-12.3L188.03-11.5Q188.03-2.7 196.43-2.7L196.43-2.7Q199.98-2.7 202.93-3.65L202.93-3.65Q203.68-3.9 203.98-4.05L203.98-4.05 204.73-1.4Q202.98-0.35 198.38 0.1L198.38 0.1Q197.08 0.2 195.63 0.2L195.63 0.2Q191.43 0.2 188.63-1.9L188.63-1.9Q184.78-4.75 184.78-11.4 184.78-18.05 188.25-21.63 191.73-25.2 196.68-25.2 201.63-25.2 204.13-22L204.13-22Q206.03-19.45 206.03-15.25L206.03-15.25Q206.03-14.25 205.93-13.15L205.93-13.15 188.08-13.15Q188.03-12.75 188.03-12.3L188.03-12.3ZM196.88-22.1L196.88-22.1Q193.78-22.1 191.58-20.23 189.38-18.35 188.53-15.4L188.53-15.4 203.08-15.4Q202.83-20.95 198.78-21.85L198.78-21.85Q197.88-22.1 196.88-22.1ZM213.58-25.25L213.58-22.25Q217.33-25 220.68-25.15L220.68-25.15Q223.73-25.15 225.38-24.4 227.03-23.65 228.1-22.28 229.18-20.9 229.18-18.4L229.18-18.4 229.18 0 225.93 0 225.93-17.55Q225.93-19.4 225.13-20.4L225.13-20.4Q223.53-22.25 220.23-22.25L220.23-22.25Q217.08-22.1 213.58-20.2L213.58-20.2 213.58 0 210.33 0 210.33-25 213.58-25.25ZM238.17-12.3L238.17-11.5Q238.17-2.7 246.57-2.7L246.57-2.7Q250.12-2.7 253.07-3.65L253.07-3.65Q253.82-3.9 254.12-4.05L254.12-4.05 254.87-1.4Q253.12-0.35 248.52 0.1L248.52 0.1Q247.22 0.2 245.77 0.2L245.77 0.2Q241.57 0.2 238.77-1.9L238.77-1.9Q234.92-4.75 234.92-11.4 234.92-18.05 238.4-21.63 241.87-25.2 246.82-25.2 251.77-25.2 254.27-22L254.27-22Q256.17-19.45 256.17-15.25L256.17-15.25Q256.17-14.25 256.07-13.15L256.07-13.15 238.22-13.15Q238.17-12.75 238.17-12.3L238.17-12.3ZM247.02-22.1L247.02-22.1Q243.92-22.1 241.72-20.23 239.52-18.35 238.67-15.4L238.67-15.4 253.22-15.4Q252.97-20.95 248.92-21.85L248.92-21.85Q248.02-22.1 247.02-22.1ZM274.82-24.5L273.52-21.5Q272.72-21.95 271.82-21.95 270.92-21.95 270.82-21.9L270.82-21.9Q268.92-21.9 267-20.53 265.07-19.15 263.72-17.45L263.72-17.45 263.72 0 260.47 0 260.47-25 263.72-25.25 263.72-19.65Q265.57-22 266.87-22.95L266.87-22.95Q269.27-24.75 271.47-24.85L271.47-24.85Q271.77-24.9 272.57-24.9 273.37-24.9 274.82-24.5L274.82-24.5Z" opacity="1" transform="matrix(1,0,0,1,0,0)" fill="#ff6699" class="slogan-text-1" data-fill-palette-color="secondary" id="text-1"></path></svg></g></svg></g></svg></g></svg></g><g transform="matrix(1,0,0,1,36.672,0)"><svg viewBox="0 0 118.65599999999998 118.65599999999998" height="118.65599999999998" width="118.65599999999998"><g><svg xmlns="http://www.w3.org/2000/svg" xmlns:xlink="http://www.w3.org/1999/xlink" version="1.1" x="0" y="0" viewBox="0 0 16 16" style="enable-background:new 0 0 16 16;" xml:space="preserve" height="118.65599999999998" width="118.65599999999998" class="icon-icon-0" data-fill-palette-color="accent" id="icon-0"><g fill="#ffffff" data-fill-palette-color="accent"><path d="M12 1H4V0H0v4h1v8H0v4h4v-1h8v1h4v-4h-1V4h1V0h-4V1zM13 12h-1v1H4v-1H3V4h1V3h8v1h1V12z" fill="#ffffff" data-fill-palette-color="accent"></path></g></svg></g></svg></g><g></g></svg></g></svg></g></svg></g></svg></g><defs></defs></svg><rect width="320" height="360" fill="none" stroke="none" visibility="hidden"></rect></g></svg></g></svg>